<svg width="176" height="46" viewBox="0 0 176 46" fill="none" xmlns="http://www.w3.org/2000/svg">
<path d="M140.398 10.9723C138.861 10.9723 137.605 12.2712 137.605 13.8629V27.3863L124.989 12.3985C124.31 11.5326 123.285 11.0105 122.132 11.0105C120.121 11.0105 118.469 12.7041 118.469 14.7798C118.469 14.9326 118.482 15.0726 118.482 15.2127V33.0911C118.507 34.5937 119.724 35.6379 121.197 35.6379C122.67 35.6379 123.9 34.5809 123.9 33.0656V19.4658L136.555 34.3008C137.247 35.103 138.246 35.5997 139.373 35.5997C141.474 35.5997 143.164 33.8551 143.164 31.6904V13.8629C143.164 12.2712 141.922 10.9723 140.398 10.9723Z" fill="#292929"/>
<path d="M167.425 31.3975L153.835 13.7992L152.977 12.6914C152.298 11.66 151.145 10.9723 149.851 10.9723C147.853 10.9723 146.201 12.6277 146.124 14.6651V32.7345C146.124 34.339 147.354 35.6251 148.891 35.6251C150.351 35.6251 151.542 34.4409 151.67 32.951V30.6844H160.47L163.377 34.4918C163.826 35.1667 164.607 35.6251 165.478 35.6251C166.874 35.6251 168.014 34.4536 168.014 33.0147C168.014 32.4035 167.784 31.8304 167.438 31.3975M153.848 25.0305H151.683V19.313L153.848 22.1909L155.987 25.0305H153.848Z" fill="#292929"/>
<path d="M41.0273 32.5182V14.8181C41.0273 12.717 39.3877 11.0107 37.3383 11.0107C35.9293 11.0107 34.6997 11.8257 34.072 13.0481L26.4508 25.6547V14.7417C26.4636 12.6661 24.8497 10.998 22.8387 10.998C21.4041 10.998 20.1744 11.8639 19.5852 13.0863L8.56961 31.6523C8.36467 32.0216 8.24939 32.4546 8.24939 32.9257C8.24939 34.3901 9.38938 35.5489 10.7984 35.5489C11.7718 35.5489 12.63 34.9759 13.0399 34.1482L20.8405 21.1596V31.8688C20.8277 33.9062 22.4416 35.5744 24.4014 35.5744C25.8231 35.5744 27.04 34.7339 27.6292 33.5369L35.1096 21.1596V32.5692C35.1352 34.2246 36.4673 35.5744 38.0812 35.5744C39.6951 35.5744 41.0401 34.2118 41.0401 32.5055" fill="#292929"/>
<path d="M112.821 30.035L103.291 30.0222V25.8582H112.783C114.307 25.8455 115.524 24.5594 115.524 22.9931C115.524 21.4268 114.307 20.1662 112.783 20.1662H103.291V16.6007H112.821C114.294 16.6007 115.511 15.34 115.511 13.7992C115.511 12.2584 114.307 11.0105 112.834 10.9723H100.858C99.2052 11.0105 97.8474 12.3858 97.8474 14.1049V32.4799C97.8474 34.2117 99.2052 35.6124 100.87 35.6124H101.165L112.834 35.5997C114.307 35.5742 115.498 34.3263 115.498 32.7982C115.498 31.2701 114.294 30.0222 112.821 30.0222" fill="#292929"/>
<path d="M84.7433 11.036H73.7917C72.1522 11.036 70.8073 12.4113 70.8073 14.1176L70.8329 14.5124V32.1361L70.8073 32.5308C70.8073 34.2244 72.1394 35.6252 73.7917 35.6252H73.9198L83.0653 35.6124H84.7433C84.7433 35.6124 94.9391 35.3959 94.9391 23.1841C94.9391 10.9723 84.7689 11.036 84.7433 11.036ZM84.0772 29.7548H76.6225V16.8045H84.0772C84.0772 16.8045 89.4441 16.7917 89.4441 23.1969C89.4441 29.602 84.0772 29.7676 84.0772 29.7676" fill="#292929"/>
<path d="M55.8724 11.0233C49.2887 11.036 43.9602 16.537 43.9602 23.3115C43.9602 30.0859 49.2887 35.5997 55.8724 35.6251C62.4562 35.6251 67.7975 30.1114 67.7975 23.3115C67.7975 16.5116 62.4562 11.0233 55.8724 11.0233ZM55.8724 29.8439C52.3756 29.8439 49.5577 26.9024 49.5577 23.3115C49.5577 19.7205 52.3756 16.7917 55.8724 16.7917C59.3693 16.7917 62.2 19.7078 62.2 23.3115C62.2 26.9151 59.3565 29.8439 55.8724 29.8439Z" fill="#292929"/>
</svg>
