<svg width="115" height="46" viewBox="0 0 115 46" fill="none" xmlns="http://www.w3.org/2000/svg">
<g clip-path="url(#clip0_899_1131)">
<path d="M36.1664 28.8222V14.516C36.1664 12.814 34.7701 11.4419 33.0381 11.4419C31.8478 11.4419 30.8025 12.1017 30.2684 13.0914L23.8058 23.2812V14.4486C23.8058 12.769 22.4323 11.4269 20.7308 11.4269C19.5177 11.4269 18.4724 12.1242 17.9688 13.1139L8.62197 28.1173C8.45411 28.4098 8.34729 28.7622 8.34729 29.1446C8.34729 30.3292 9.31631 31.2665 10.5066 31.2665C11.3306 31.2665 12.0555 30.8091 12.4065 30.1343L19.0294 19.6371V28.0499C19.0141 28.1248 19.0141 28.2148 19.0141 28.2898C19.0141 29.9394 20.3875 31.289 22.0508 31.289C23.2564 31.289 24.2865 30.6067 24.79 29.6394L31.1382 19.6371V28.8596C31.1611 30.1943 32.2904 31.289 33.6561 31.289C35.0219 31.289 36.1664 30.1868 36.1664 28.8147" fill="#777777"/>
<path d="M23.4013 0C10.4989 0 0 10.3172 0 22.9963C0 35.6753 10.4989 45.9925 23.4013 45.9925C36.3037 45.9925 46.8027 35.6753 46.8027 22.9963C46.8027 10.3172 36.3114 0 23.4013 0ZM23.4013 43.4432C11.9258 43.4432 2.59421 34.2732 2.59421 22.9963C2.59421 11.7193 11.9334 2.54931 23.4013 2.54931C34.8693 2.54931 44.2085 11.7193 44.2085 22.9963C44.2085 34.2732 34.8769 43.4432 23.4013 43.4432Z" fill="#777777"/>
<path d="M60.987 21.954C59.2473 21.954 57.7595 21.5566 56.5158 20.7694C55.2721 19.9821 54.3183 18.8874 53.6469 17.4927C52.9754 16.0981 52.6473 14.4936 52.6473 12.6716C52.6473 10.8496 52.9907 9.22999 53.6698 7.82787C54.3488 6.42576 55.3102 5.33105 56.5539 4.55126C57.7976 3.76398 59.2702 3.37408 60.9717 3.37408C62.3833 3.37408 63.6346 3.64401 64.7257 4.17637C65.8168 4.70872 66.6866 5.46602 67.3352 6.43325C67.9837 7.40799 68.3576 8.54018 68.4492 9.83733H64.5273C64.3671 8.96756 63.9932 8.24776 63.3981 7.66292C62.8029 7.07808 62.0094 6.79316 61.0251 6.79316C60.1858 6.79316 59.4533 7.02559 58.8124 7.49047C58.1791 7.95534 57.6832 8.62266 57.3322 9.48492C56.9812 10.3547 56.8057 11.3894 56.8057 12.6041C56.8057 13.8187 56.9812 14.8835 57.3246 15.7607C57.6755 16.638 58.1639 17.3128 58.7895 17.7852C59.4228 18.2575 60.1629 18.4975 61.0175 18.4975C61.6203 18.4975 62.162 18.3775 62.6427 18.1376C63.1234 17.8976 63.5278 17.5527 63.8482 17.1029C64.1763 16.653 64.3976 16.0981 64.5197 15.4533H68.4415C68.3423 16.728 67.9837 17.8527 67.3504 18.8349C66.7248 19.8171 65.8702 20.5819 64.7867 21.1293C63.7033 21.6766 62.4367 21.954 60.9793 21.954H60.987Z" fill="#777777"/>
<path d="M76.0029 21.969C74.8965 21.969 73.9046 21.7666 73.0272 21.3542C72.1497 20.9418 71.4477 20.3345 70.9442 19.5322C70.4329 18.7299 70.1812 17.7327 70.1812 16.5555C70.1812 15.5433 70.3643 14.7035 70.7229 14.0362C71.0891 13.3764 71.5774 12.844 72.2107 12.4466C72.8364 12.0492 73.546 11.7493 74.3395 11.5394C75.1254 11.3294 75.9495 11.1795 76.7964 11.0895C77.8188 10.977 78.6429 10.8795 79.2762 10.7896C79.9095 10.6996 80.3749 10.5571 80.6648 10.3697C80.9548 10.1747 81.0997 9.88231 81.0997 9.47742V9.40994C81.0997 8.52518 80.8479 7.84287 80.3367 7.363C79.8332 6.87563 79.1007 6.6357 78.1469 6.6357C77.1397 6.6357 76.3462 6.86063 75.7587 7.31801C75.1712 7.76789 74.7744 8.30774 74.5761 8.92257L70.7458 8.36023C71.051 7.26552 71.5469 6.35077 72.2413 5.61597C72.9356 4.88117 73.7902 4.32632 74.7897 3.95143C75.7969 3.58402 76.9032 3.39658 78.124 3.39658C78.9633 3.39658 79.795 3.50155 80.6267 3.70399C81.4584 3.90644 82.2137 4.24385 82.9081 4.70872C83.5948 5.17359 84.1518 5.80342 84.5714 6.59821C84.9911 7.39299 85.1971 8.39022 85.1971 9.5824V21.6241H81.2523V19.1498H81.115C80.8632 19.6522 80.5122 20.117 80.0697 20.5519C79.6195 20.9868 79.0549 21.3317 78.3834 21.5941C77.7044 21.8566 76.9185 21.984 76.0105 21.984L76.0029 21.969ZM77.0711 18.8499C77.8951 18.8499 78.6123 18.6774 79.2151 18.34C79.8179 18.0026 80.2833 17.5527 80.6114 16.9904C80.9395 16.428 81.1074 15.8132 81.1074 15.1534V13.0315C80.9777 13.1439 80.764 13.2414 80.4588 13.3389C80.1536 13.4363 79.8103 13.5113 79.4364 13.5863C79.0549 13.6538 78.681 13.7213 78.3148 13.7738C77.9409 13.8262 77.6204 13.8787 77.3534 13.9162C76.743 13.9987 76.1936 14.1412 75.7129 14.3361C75.2322 14.5311 74.8507 14.801 74.5684 15.1534C74.2861 15.4983 74.1488 15.9482 74.1488 16.4955C74.1488 17.2753 74.4235 17.8676 74.9728 18.265C75.5222 18.6624 76.2241 18.8649 77.0787 18.8649L77.0711 18.8499Z" fill="#777777"/>
<path d="M87.9897 21.6016V3.61403H91.9649V6.61322H92.1481C92.4685 5.5785 93.0103 4.77622 93.7885 4.20637C94.5668 3.64402 95.4519 3.3591 96.4438 3.3591C96.6727 3.3591 96.9245 3.3666 97.2068 3.38909C97.4891 3.41159 97.7256 3.44158 97.9164 3.47907V7.37801C97.7409 7.31802 97.4662 7.25804 97.0923 7.20555C96.7185 7.15307 96.3598 7.13058 96.0089 7.13058C95.2611 7.13058 94.5897 7.29553 93.9945 7.62544C93.3994 7.95535 92.934 8.41273 92.5982 9.00507C92.2549 9.58991 92.087 10.2647 92.087 11.0295V21.6091H87.9821L87.9897 21.6016Z" fill="#777777"/>
<path d="M107.256 21.954C105.508 21.954 104.005 21.5791 102.739 20.8218C101.472 20.072 100.503 18.9998 99.8163 17.6127C99.1372 16.2256 98.7938 14.591 98.7938 12.709C98.7938 10.8271 99.1372 9.22999 99.8163 7.82787C100.503 6.42576 101.457 5.33105 102.693 4.55126C103.921 3.76398 105.371 3.37408 107.034 3.37408C108.11 3.37408 109.125 3.55404 110.079 3.90644C111.032 4.25884 111.879 4.81369 112.619 5.54849C113.36 6.29079 113.939 7.23554 114.359 8.37523C114.779 9.52241 114.992 10.8795 114.992 12.4541V13.7513H100.724V10.8945H111.063C111.063 10.0848 110.887 9.35746 110.552 8.72013C110.216 8.08281 109.758 7.58044 109.163 7.21304C108.568 6.84564 107.881 6.66569 107.095 6.66569C106.256 6.66569 105.516 6.87563 104.883 7.29552C104.249 7.7154 103.753 8.26276 103.402 8.93757C103.051 9.61239 102.868 10.3547 102.861 11.157V13.6538C102.861 14.7035 103.044 15.5958 103.418 16.3381C103.791 17.0804 104.303 17.6502 104.974 18.0476C105.638 18.445 106.416 18.6399 107.309 18.6399C107.904 18.6399 108.446 18.55 108.927 18.3775C109.407 18.2051 109.827 17.9426 110.185 17.5977C110.544 17.2528 110.811 16.8254 110.987 16.3231L114.817 16.7654C114.573 17.8152 114.115 18.7224 113.444 19.5022C112.764 20.282 111.902 20.8818 110.857 21.3092C109.804 21.7366 108.606 21.9465 107.256 21.9465V21.954Z" fill="#777777"/>
<path d="M53.6392 43.1883C53.4561 43.1883 53.3035 43.1358 53.1737 43.0383C53.044 42.9408 52.9448 42.7984 52.8762 42.6109C52.8075 42.4235 52.777 42.1985 52.777 41.9361C52.777 41.6737 52.8151 41.4488 52.8762 41.2613C52.9448 41.0739 53.044 40.9314 53.1737 40.8339C53.3035 40.7364 53.4561 40.684 53.6392 40.684C53.8223 40.684 53.9749 40.7364 54.1046 40.8339C54.2343 40.9314 54.3335 41.0739 54.4022 41.2613C54.4709 41.4488 54.5014 41.6737 54.5014 41.9361C54.5014 42.1985 54.4709 42.431 54.4022 42.6184C54.3335 42.8059 54.2343 42.9483 54.1046 43.0458C53.9749 43.1433 53.8223 43.1958 53.6392 43.1958V43.1883ZM53.6392 42.8734C53.7994 42.8734 53.9215 42.7909 54.013 42.6334C54.1046 42.476 54.1504 42.2435 54.1504 41.9361C54.1504 41.7337 54.1275 41.5612 54.0893 41.4263C54.0512 41.2838 53.9902 41.1788 53.9139 41.1113C53.8376 41.0364 53.746 41.0064 53.6392 41.0064C53.4789 41.0064 53.3569 41.0888 53.2653 41.2463C53.1737 41.4038 53.128 41.6437 53.128 41.9436C53.128 42.1461 53.1509 42.3185 53.189 42.4535C53.2272 42.5959 53.2882 42.7009 53.3645 42.7684C53.4408 42.8434 53.5324 42.8734 53.6392 42.8734Z" fill="#777777"/>
<path d="M55.7374 43.1808C55.5695 43.1808 55.4245 43.1508 55.3025 43.0908C55.1728 43.0308 55.0812 42.9483 55.0049 42.8509C54.9362 42.7459 54.8981 42.6334 54.8981 42.4985C54.8981 42.3935 54.921 42.3035 54.9591 42.2135C54.9973 42.1236 55.0583 42.0561 55.127 41.9961C55.1956 41.9361 55.2796 41.8986 55.3711 41.8836V41.8686C55.2567 41.8386 55.1575 41.7712 55.0888 41.6737C55.0202 41.5762 54.982 41.4563 54.982 41.3288C54.982 41.2013 55.0125 41.0963 55.0812 40.9989C55.1422 40.9014 55.2338 40.8264 55.3482 40.7664C55.4627 40.714 55.5924 40.684 55.7374 40.684C55.8824 40.684 56.0121 40.714 56.1189 40.7664C56.2333 40.8264 56.3173 40.9014 56.3859 40.9989C56.4546 41.0963 56.4851 41.2088 56.4851 41.3288C56.4851 41.4563 56.447 41.5762 56.3783 41.6737C56.3096 41.7712 56.2181 41.8386 56.1036 41.8686V41.8836C56.1952 41.8986 56.2715 41.9361 56.3401 41.9961C56.4088 42.0561 56.4699 42.1236 56.508 42.2135C56.5538 42.3035 56.5691 42.3935 56.5767 42.4985C56.5767 42.6334 56.5385 42.7459 56.4699 42.8509C56.4012 42.9558 56.302 43.0308 56.1723 43.0908C56.0426 43.1508 55.9052 43.1808 55.7374 43.1808ZM55.7374 42.8809C55.8366 42.8809 55.9205 42.8659 55.9892 42.8284C56.0578 42.7984 56.1189 42.7459 56.157 42.6859C56.1952 42.6259 56.2181 42.551 56.2181 42.476C56.2181 42.3935 56.1952 42.3185 56.157 42.251C56.1189 42.1836 56.0578 42.1386 55.9892 42.1011C55.9205 42.0636 55.8366 42.0486 55.745 42.0486C55.6534 42.0486 55.5695 42.0636 55.5008 42.1011C55.4322 42.1386 55.3711 42.1911 55.333 42.251C55.2948 42.3185 55.2719 42.3935 55.2719 42.476C55.2719 42.5585 55.2872 42.6259 55.3254 42.6859C55.3635 42.7459 55.4169 42.7909 55.4932 42.8284C55.5619 42.8584 55.6534 42.8809 55.745 42.8809H55.7374ZM55.7374 41.7487C55.8137 41.7487 55.8823 41.7337 55.9434 41.7037C56.0044 41.6737 56.0502 41.6287 56.0884 41.5687C56.1265 41.5087 56.1418 41.4413 56.1418 41.3663C56.1418 41.2913 56.1265 41.2238 56.0884 41.1638C56.0578 41.1038 56.0044 41.0664 55.9434 41.0289C55.8823 40.9989 55.8137 40.9839 55.7297 40.9839C55.6458 40.9839 55.5771 40.9989 55.5161 41.0289C55.4551 41.0589 55.4093 41.1038 55.3711 41.1638C55.3406 41.2238 55.3177 41.2838 55.3254 41.3663C55.3254 41.4413 55.3406 41.5087 55.3788 41.5687C55.4169 41.6287 55.4627 41.6737 55.5237 41.7037C55.5848 41.7337 55.6535 41.7487 55.7374 41.7487Z" fill="#777777"/>
<path d="M57.8585 40.714V43.1433H57.4999V41.0814H57.4847L56.92 41.4638V41.1114L57.5076 40.714H57.8509H57.8585Z" fill="#777777"/>
<path d="M59.2244 43.1808C59.0794 43.1808 58.9497 43.1508 58.8352 43.0983C58.7208 43.0383 58.6292 42.9633 58.5606 42.8584C58.4919 42.7609 58.4537 42.6409 58.4537 42.5135H58.7971C58.8047 42.6184 58.8505 42.7009 58.9344 42.7684C59.0184 42.8359 59.1099 42.8659 59.2244 42.8659C59.3159 42.8659 59.3922 42.8434 59.4685 42.7984C59.5372 42.7534 59.5906 42.6934 59.6364 42.6184C59.6745 42.5435 59.6974 42.4535 59.6974 42.356C59.6974 42.2585 59.6745 42.1686 59.6364 42.0936C59.5982 42.0186 59.5372 41.9586 59.4685 41.9136C59.3922 41.8686 59.3159 41.8461 59.2167 41.8461C59.1481 41.8461 59.0718 41.8611 59.0031 41.8836C58.9344 41.9061 58.8734 41.9436 58.8276 41.9811L58.4995 41.9286L58.6292 40.7065H59.9263V41.0214H58.9268L58.8505 41.7037H58.8658C58.9115 41.6587 58.9726 41.6212 59.0489 41.5912C59.1252 41.5612 59.2091 41.5462 59.293 41.5462C59.438 41.5462 59.5677 41.5837 59.6745 41.6512C59.789 41.7187 59.8729 41.8161 59.9416 41.9361C60.0026 42.0561 60.0408 42.1985 60.0408 42.356C60.0408 42.5135 60.0103 42.6559 59.9416 42.7759C59.8729 42.8959 59.7737 42.9933 59.6517 43.0683C59.5296 43.1358 59.3922 43.1733 59.232 43.1733L59.2244 43.1808Z" fill="#777777"/>
<path d="M61.2921 40.714V43.1433H60.9335V41.0814H60.9183L60.3536 41.4638V41.1114L60.9412 40.714H61.2845H61.2921Z" fill="#777777"/>
<path d="M62.9402 41.7787V42.0861H61.8949V41.7787H62.9402Z" fill="#777777"/>
<path d="M64.161 40.714V43.1433H63.8024V41.0814H63.7872L63.2225 41.4638V41.1114L63.81 40.714H64.1534H64.161Z" fill="#777777"/>
<path d="M65.5192 43.1808C65.3742 43.1808 65.2445 43.1508 65.13 43.0983C65.0156 43.0383 64.924 42.9633 64.8554 42.8584C64.7867 42.7609 64.7485 42.6409 64.7485 42.5135H65.0919C65.0995 42.6184 65.1453 42.7009 65.2292 42.7684C65.3132 42.8359 65.4047 42.8659 65.5192 42.8659C65.6107 42.8659 65.687 42.8434 65.7633 42.7984C65.832 42.7534 65.8854 42.6934 65.9312 42.6184C65.9693 42.5435 65.9922 42.4535 65.9922 42.356C65.9922 42.2585 65.9693 42.1686 65.9312 42.0936C65.893 42.0186 65.832 41.9586 65.7633 41.9136C65.6947 41.8686 65.6107 41.8461 65.5115 41.8461C65.4429 41.8461 65.3666 41.8611 65.2979 41.8836C65.2292 41.9061 65.1682 41.9436 65.1224 41.9811L64.7943 41.9286L64.924 40.7065H66.2211V41.0214H65.2216L65.1453 41.7037H65.1606C65.2063 41.6587 65.2674 41.6212 65.3437 41.5912C65.42 41.5612 65.5039 41.5462 65.5878 41.5462C65.7328 41.5462 65.8625 41.5837 65.9693 41.6512C66.0838 41.7187 66.1677 41.8161 66.2364 41.9361C66.2974 42.0561 66.3356 42.1985 66.3356 42.356C66.3356 42.5135 66.3051 42.6559 66.2364 42.7759C66.1677 42.8959 66.0685 42.9933 65.9465 43.0683C65.8244 43.1358 65.687 43.1733 65.5268 43.1733L65.5192 43.1808Z" fill="#777777"/>
<path d="M67.8081 41.7787V42.0861H66.7628V41.7787H67.8081Z" fill="#777777"/>
<path d="M69.1587 43.1883C68.9756 43.1883 68.823 43.1358 68.6933 43.0383C68.5636 42.9408 68.4644 42.7984 68.3957 42.6109C68.327 42.4235 68.2965 42.1985 68.2965 41.9361C68.2965 41.6737 68.327 41.4488 68.3957 41.2613C68.4644 41.0739 68.5636 40.9314 68.6933 40.8339C68.823 40.7364 68.9756 40.684 69.1587 40.684C69.3418 40.684 69.4944 40.7364 69.6241 40.8339C69.7538 40.9314 69.853 41.0739 69.9217 41.2613C69.9904 41.4488 70.0209 41.6737 70.0209 41.9361C70.0209 42.1985 69.9904 42.431 69.9217 42.6184C69.853 42.8059 69.7538 42.9483 69.6241 43.0458C69.4944 43.1433 69.3418 43.1958 69.1587 43.1958V43.1883ZM69.1587 42.8734C69.3189 42.8734 69.441 42.7909 69.5326 42.6334C69.6241 42.476 69.6699 42.2435 69.6699 41.9361C69.6699 41.7337 69.647 41.5612 69.6089 41.4263C69.5707 41.2838 69.5097 41.1788 69.4334 41.1113C69.3571 41.0364 69.2655 41.0064 69.1587 41.0064C68.9985 41.0064 68.8764 41.0888 68.7848 41.2463C68.6933 41.4113 68.6475 41.6437 68.6475 41.9436C68.6475 42.1461 68.6704 42.3185 68.7085 42.4535C68.7467 42.5959 68.8077 42.7009 68.884 42.7684C68.9603 42.8434 69.0519 42.8734 69.1587 42.8734Z" fill="#777777"/>
<path d="M71.3103 43.1883C71.1272 43.1883 70.9746 43.1358 70.8449 43.0383C70.7152 42.9408 70.616 42.7984 70.5473 42.6109C70.4786 42.4235 70.4481 42.1985 70.4481 41.9361C70.4481 41.6737 70.4786 41.4488 70.5473 41.2613C70.616 41.0739 70.7152 40.9314 70.8449 40.8339C70.9746 40.7364 71.1272 40.684 71.3103 40.684C71.4934 40.684 71.646 40.7364 71.7757 40.8339C71.9055 40.9314 72.0046 41.0739 72.0733 41.2613C72.142 41.4488 72.1725 41.6737 72.1725 41.9361C72.1725 42.1985 72.142 42.431 72.0733 42.6184C72.0046 42.8059 71.9055 42.9483 71.7757 43.0458C71.646 43.1433 71.4934 43.1958 71.3103 43.1958V43.1883ZM71.3103 42.8734C71.4705 42.8734 71.5926 42.7909 71.6842 42.6334C71.7757 42.476 71.8215 42.2435 71.8215 41.9361C71.8215 41.7337 71.7986 41.5612 71.7605 41.4263C71.7223 41.2838 71.6613 41.1788 71.585 41.1113C71.5087 41.0364 71.4171 41.0064 71.3103 41.0064C71.1501 41.0064 71.028 41.0888 70.9364 41.2463C70.8449 41.4113 70.7991 41.6437 70.7991 41.9436C70.7991 42.1461 70.822 42.3185 70.8601 42.4535C70.8983 42.5959 70.9593 42.7009 71.0356 42.7684C71.1119 42.8434 71.2035 42.8734 71.3103 42.8734Z" fill="#777777"/>
<path d="M72.6151 43.1433L73.6451 41.0439V41.0289H72.4548V40.714H74.0114V41.0364L72.9889 43.1433H72.6151Z" fill="#777777"/>
<path d="M75.3008 41.7787V42.0861H74.2555V41.7787H75.3008Z" fill="#777777"/>
<path d="M76.5216 40.714V43.1433H76.163V41.0814H76.1478L75.5831 41.4638V41.1114L76.1706 40.714H76.514H76.5216Z" fill="#777777"/>
<path d="M77.8798 43.1808C77.7348 43.1808 77.6051 43.1508 77.4906 43.0983C77.3762 43.0383 77.2846 42.9633 77.216 42.8584C77.1473 42.7609 77.1091 42.6409 77.1091 42.5135H77.4525C77.4601 42.6184 77.5059 42.7009 77.5898 42.7684C77.6738 42.8359 77.7653 42.8659 77.8798 42.8659C77.9713 42.8659 78.0476 42.8434 78.1239 42.7984C78.1926 42.7534 78.246 42.6934 78.2918 42.6184C78.3299 42.5435 78.3528 42.4535 78.3528 42.356C78.3528 42.2585 78.3299 42.1686 78.2918 42.0936C78.2536 42.0186 78.1926 41.9586 78.1239 41.9136C78.0476 41.8686 77.9713 41.8461 77.8721 41.8461C77.8035 41.8461 77.7272 41.8611 77.6585 41.8836C77.5898 41.9061 77.5288 41.9436 77.483 41.9811L77.1549 41.9286L77.2846 40.7065H78.5817V41.0214H77.5822L77.5059 41.7037H77.5212C77.5669 41.6587 77.628 41.6212 77.7043 41.5912C77.7806 41.5612 77.8645 41.5462 77.9484 41.5462C78.0934 41.5462 78.2231 41.5837 78.3299 41.6512C78.4444 41.7187 78.5283 41.8161 78.597 41.9361C78.658 42.0561 78.6962 42.1985 78.6962 42.356C78.6962 42.5135 78.6657 42.6559 78.597 42.7759C78.5283 42.8959 78.4291 42.9933 78.307 43.0683C78.185 43.1358 78.0476 43.1733 77.8874 43.1733L77.8798 43.1808Z" fill="#777777"/>
<path d="M83.6252 42.9783L83.053 40.9689H83.4421L83.8236 42.446H83.8465L84.228 40.9689H84.6171L84.9986 42.4385H85.0215L85.403 40.9689H85.7922L85.2199 42.9783H84.8308L84.434 41.5237H84.4035L84.0067 42.9783H83.6176H83.6252Z" fill="#777777"/>
<path d="M86.662 42.9783L86.0897 40.9689H86.4788L86.8604 42.446H86.8756L87.2571 40.9689H87.6463L88.0278 42.4385H88.0506L88.4321 40.9689H88.8213L88.249 42.9783H87.8599L87.4631 41.5237H87.4326L87.0358 42.9783H86.6467H86.662Z" fill="#777777"/>
<path d="M89.6987 42.9783L89.1265 40.9689H89.5156L89.8971 42.446H89.92L90.3015 40.9689H90.6906L91.0721 42.4385H91.095L91.4765 40.9689H91.8657L91.2934 42.9783H90.9043L90.5075 41.5237H90.477L90.0802 42.9783H89.6911H89.6987Z" fill="#777777"/>
<path d="M92.3311 43.0008C92.2625 43.0008 92.2014 42.9783 92.1556 42.9258C92.1022 42.8733 92.0793 42.8134 92.0793 42.7384C92.0793 42.6634 92.1022 42.6034 92.1556 42.5509C92.2091 42.4984 92.2625 42.476 92.3311 42.476C92.3998 42.476 92.4608 42.4984 92.5066 42.5509C92.56 42.6034 92.5829 42.6634 92.5829 42.7384C92.5829 42.7834 92.5677 42.8284 92.5448 42.8733C92.5219 42.9108 92.4914 42.9483 92.4532 42.9708C92.4151 42.9933 92.3693 43.0083 92.3235 43.0083L92.3311 43.0008Z" fill="#777777"/>
<path d="M93.1246 42.9783V40.9689H93.4909V41.2988H93.5138C93.5519 41.1863 93.6206 41.1038 93.7121 41.0364C93.8037 40.9764 93.9182 40.9464 94.0402 40.9464C94.1623 40.9464 94.2768 40.9764 94.3683 41.0439C94.4599 41.1113 94.5209 41.1938 94.5667 41.3063H94.5896C94.6354 41.2013 94.7117 41.1113 94.8109 41.0514C94.9101 40.9839 95.0321 40.9539 95.1771 40.9539C95.3526 40.9539 95.4976 41.0139 95.612 41.1263C95.7265 41.2388 95.7799 41.4113 95.7799 41.6437V42.9933H95.3984V41.6812C95.3984 41.5462 95.3602 41.4487 95.2916 41.3888C95.2229 41.3288 95.1313 41.2988 95.0321 41.2988C94.9101 41.2988 94.8109 41.3363 94.7422 41.4188C94.6735 41.4937 94.643 41.5987 94.643 41.7187V43.0008H94.2615V41.6662C94.2615 41.5537 94.231 41.4712 94.1623 41.4038C94.0936 41.3363 94.0097 41.3063 93.9029 41.3063C93.8342 41.3063 93.7656 41.3288 93.7045 41.3663C93.6435 41.4038 93.5977 41.4562 93.5595 41.5312C93.5214 41.5987 93.5061 41.6812 93.5061 41.7712V43.0158H93.1246V42.9783Z" fill="#777777"/>
<path d="M97.1305 43.0158C96.9473 43.0158 96.7871 42.9708 96.6498 42.8883C96.5124 42.7984 96.4056 42.6784 96.3293 42.5284C96.253 42.371 96.2148 42.191 96.2148 41.9811C96.2148 41.7711 96.253 41.5912 96.3293 41.4337C96.4056 41.2763 96.5124 41.1563 96.6498 41.0663C96.7871 40.9764 96.9473 40.9389 97.1305 40.9389C97.3136 40.9389 97.4738 40.9839 97.6111 41.0663C97.7485 41.1563 97.8553 41.2763 97.9316 41.4337C98.0079 41.5912 98.0461 41.7711 98.0461 41.9811C98.0461 42.191 98.0079 42.371 97.9316 42.5284C97.8553 42.6859 97.7485 42.8059 97.6111 42.8883C97.4738 42.9708 97.3136 43.0158 97.1305 43.0158ZM97.1305 42.6859C97.2449 42.6859 97.3441 42.6559 97.428 42.5884C97.5043 42.5209 97.5654 42.4385 97.6035 42.3335C97.6417 42.2285 97.6569 42.1086 97.6569 41.9811C97.6569 41.8536 97.6417 41.7337 97.6035 41.6287C97.5654 41.5237 97.5043 41.4337 97.428 41.3663C97.3517 41.2988 97.2525 41.2688 97.1305 41.2688C97.0084 41.2688 96.9092 41.2988 96.8329 41.3663C96.7566 41.4337 96.6955 41.5162 96.6574 41.6287C96.6192 41.7337 96.604 41.8536 96.604 41.9811C96.604 42.1086 96.6192 42.2285 96.6574 42.3335C96.6955 42.4385 96.7566 42.5284 96.8329 42.5884C96.9092 42.6559 97.0084 42.6859 97.1305 42.6859Z" fill="#777777"/>
<path d="M99.2134 43.0158C99.0532 43.0158 98.9158 42.9708 98.7937 42.8884C98.6716 42.8059 98.5725 42.6859 98.5038 42.5285C98.4351 42.371 98.397 42.1835 98.397 41.9661C98.397 41.7487 98.4351 41.5612 98.5038 41.4113C98.5725 41.2613 98.6716 41.1413 98.7937 41.0588C98.9158 40.9764 99.0608 40.9389 99.2134 40.9389C99.3355 40.9389 99.4347 40.9614 99.5033 40.9989C99.5796 41.0439 99.633 41.0888 99.6788 41.1413C99.717 41.1938 99.7551 41.2463 99.778 41.2838H99.8009V40.2866H100.182V42.9708H99.8085V42.6559H99.778C99.7551 42.7009 99.7246 42.7459 99.6788 42.8059C99.633 42.8584 99.5796 42.9108 99.5033 42.9483C99.427 42.9858 99.3355 43.0083 99.2134 43.0083V43.0158ZM99.2973 42.6784C99.4041 42.6784 99.4957 42.6484 99.572 42.5884C99.6483 42.5285 99.7017 42.446 99.7475 42.341C99.7856 42.236 99.8085 42.1086 99.8085 41.9661C99.8085 41.8236 99.7856 41.7037 99.7475 41.5987C99.7093 41.4937 99.6483 41.4113 99.5796 41.3513C99.5033 41.2913 99.4118 41.2613 99.2973 41.2613C99.1829 41.2613 99.0913 41.2913 99.015 41.3513C98.9387 41.4113 98.8853 41.4937 98.8395 41.5987C98.8014 41.7037 98.7785 41.8236 98.7785 41.9586C98.7785 42.0936 98.8014 42.2135 98.8395 42.3185C98.8777 42.4235 98.9387 42.5135 99.015 42.5734C99.0913 42.6334 99.1829 42.6634 99.2973 42.6634V42.6784Z" fill="#777777"/>
<path d="M101.579 43.0158C101.388 43.0158 101.22 42.9708 101.083 42.8884C100.945 42.8059 100.839 42.6859 100.762 42.5285C100.686 42.371 100.648 42.1911 100.648 41.9811C100.648 41.7712 100.686 41.5912 100.762 41.4338C100.839 41.2763 100.945 41.1563 101.075 41.0664C101.212 40.9764 101.365 40.9314 101.548 40.9314C101.655 40.9314 101.762 40.9539 101.869 40.9914C101.975 41.0289 102.067 41.0889 102.143 41.1713C102.227 41.2538 102.288 41.3588 102.334 41.4862C102.38 41.6137 102.403 41.7712 102.403 41.9511V42.0936H100.854V41.8012H102.029C102.029 41.6962 102.006 41.6062 101.968 41.5237C101.93 41.4413 101.869 41.3813 101.8 41.3363C101.724 41.2913 101.64 41.2688 101.541 41.2688C101.434 41.2688 101.342 41.2988 101.258 41.3513C101.182 41.4038 101.121 41.4712 101.075 41.5612C101.029 41.6437 101.014 41.7412 101.014 41.8386V42.0711C101.014 42.2061 101.037 42.3185 101.083 42.416C101.129 42.5135 101.19 42.5809 101.273 42.6334C101.357 42.6859 101.457 42.7084 101.563 42.7084C101.632 42.7084 101.701 42.7009 101.762 42.6784C101.823 42.6559 101.869 42.6259 101.914 42.5809C101.96 42.536 101.991 42.4835 102.014 42.4235L102.372 42.491C102.342 42.6034 102.288 42.6934 102.22 42.7759C102.143 42.8584 102.052 42.9184 101.945 42.9633C101.83 43.0083 101.708 43.0308 101.563 43.0308L101.579 43.0158Z" fill="#777777"/>
<path d="M103.257 41.7786V42.9708H102.876V40.9614H103.242V41.2913H103.265C103.311 41.1863 103.379 41.0963 103.479 41.0363C103.578 40.9689 103.692 40.9389 103.845 40.9389C103.975 40.9389 104.097 40.9689 104.196 41.0214C104.295 41.0813 104.371 41.1638 104.425 41.2763C104.478 41.3888 104.509 41.5312 104.509 41.6962V42.9783H104.127V41.7487C104.127 41.6062 104.089 41.4862 104.02 41.4037C103.944 41.3213 103.845 41.2763 103.715 41.2763C103.624 41.2763 103.547 41.2988 103.479 41.3363C103.41 41.3738 103.357 41.4337 103.318 41.5087C103.28 41.5837 103.257 41.6737 103.257 41.7786Z" fill="#777777"/>
<path d="M105.592 43.0233C105.47 43.0233 105.356 43.0008 105.256 42.9483C105.157 42.9033 105.081 42.8284 105.02 42.7384C104.959 42.6484 104.936 42.5359 104.936 42.401C104.936 42.2885 104.959 42.191 104.997 42.1236C105.043 42.0486 105.096 41.9886 105.165 41.9511C105.233 41.9061 105.317 41.8761 105.409 41.8536C105.501 41.8311 105.584 41.8161 105.684 41.8011C105.798 41.7862 105.897 41.7787 105.966 41.7637C106.042 41.7562 106.088 41.7412 106.126 41.7187C106.157 41.6962 106.172 41.6662 106.172 41.6137C106.172 41.4937 106.141 41.4038 106.08 41.3363C106.019 41.2763 105.928 41.2388 105.806 41.2388C105.684 41.2388 105.577 41.2688 105.508 41.3288C105.432 41.3888 105.386 41.4487 105.356 41.5237L104.997 41.4412C105.043 41.3213 105.104 41.2163 105.18 41.1413C105.264 41.0663 105.356 41.0139 105.462 40.9764C105.569 40.9389 105.684 40.9239 105.798 40.9239C105.874 40.9239 105.958 40.9314 106.042 40.9539C106.126 40.9764 106.21 41.0064 106.286 41.0588C106.363 41.1113 106.424 41.1788 106.477 41.2688C106.523 41.3588 106.553 41.4787 106.553 41.6287V42.9633H106.18V42.6859H106.164C106.141 42.7384 106.103 42.7834 106.058 42.8359C106.012 42.8884 105.943 42.9258 105.867 42.9558C105.79 42.9858 105.699 43.0008 105.592 43.0008V43.0233ZM105.676 42.7084C105.783 42.7084 105.867 42.6859 105.943 42.6409C106.019 42.5959 106.073 42.5434 106.111 42.476C106.149 42.4085 106.172 42.3335 106.172 42.251V41.9886C106.172 41.9886 106.134 42.0186 106.096 42.0261C106.058 42.0411 106.012 42.0486 105.966 42.0561C105.92 42.0636 105.867 42.0711 105.821 42.0786C105.775 42.0786 105.737 42.0936 105.707 42.0936C105.63 42.1011 105.569 42.1161 105.508 42.1386C105.447 42.1611 105.401 42.191 105.363 42.236C105.325 42.281 105.31 42.3335 105.31 42.401C105.31 42.4985 105.348 42.5734 105.417 42.6184C105.485 42.6709 105.577 42.6934 105.684 42.6934L105.676 42.7084Z" fill="#777777"/>
<path d="M107.347 43.0008C107.278 43.0008 107.217 42.9783 107.172 42.9258C107.118 42.8733 107.095 42.8134 107.095 42.7384C107.095 42.6634 107.118 42.6034 107.172 42.5509C107.225 42.4984 107.278 42.476 107.347 42.476C107.416 42.476 107.477 42.4984 107.522 42.5509C107.576 42.6034 107.599 42.6634 107.599 42.7384C107.599 42.7834 107.584 42.8284 107.561 42.8733C107.538 42.9108 107.507 42.9483 107.469 42.9708C107.431 42.9933 107.385 43.0083 107.339 43.0083L107.347 43.0008Z" fill="#777777"/>
<path d="M108.904 43.0158C108.713 43.0158 108.553 42.9708 108.415 42.8809C108.278 42.7909 108.179 42.6709 108.102 42.5135C108.026 42.356 107.996 42.1761 107.996 41.9736C107.996 41.7712 108.034 41.5912 108.11 41.4338C108.186 41.2763 108.286 41.1563 108.423 41.0664C108.56 40.9764 108.72 40.9314 108.904 40.9314C109.049 40.9314 109.186 40.9614 109.3 41.0139C109.415 41.0739 109.506 41.1488 109.583 41.2538C109.651 41.3588 109.697 41.4713 109.712 41.6062H109.346C109.323 41.5087 109.277 41.4338 109.209 41.3588C109.14 41.2913 109.041 41.2538 108.919 41.2538C108.812 41.2538 108.72 41.2838 108.644 41.3363C108.568 41.3963 108.507 41.4712 108.461 41.5837C108.415 41.6887 108.392 41.8162 108.392 41.9586C108.392 42.1011 108.415 42.2285 108.453 42.341C108.499 42.446 108.56 42.5285 108.637 42.5884C108.713 42.6484 108.812 42.6784 108.919 42.6784C108.988 42.6784 109.056 42.6634 109.117 42.6334C109.178 42.6034 109.224 42.566 109.262 42.5135C109.3 42.461 109.331 42.401 109.346 42.326H109.712C109.697 42.4535 109.659 42.5734 109.59 42.6709C109.522 42.7684 109.43 42.8509 109.316 42.9109C109.201 42.9708 109.064 43.0008 108.911 43.0008L108.904 43.0158Z" fill="#777777"/>
<path d="M110.948 43.0158C110.765 43.0158 110.605 42.9708 110.468 42.8883C110.33 42.8059 110.224 42.6784 110.147 42.5284C110.071 42.371 110.033 42.191 110.033 41.9811C110.033 41.7711 110.071 41.5912 110.147 41.4337C110.224 41.2763 110.33 41.1563 110.468 41.0663C110.605 40.9764 110.765 40.9389 110.948 40.9389C111.132 40.9389 111.292 40.9839 111.429 41.0663C111.566 41.1563 111.673 41.2763 111.75 41.4337C111.826 41.5912 111.864 41.7711 111.864 41.9811C111.864 42.191 111.826 42.371 111.75 42.5284C111.673 42.6859 111.566 42.8059 111.429 42.8883C111.292 42.9783 111.132 43.0158 110.948 43.0158ZM110.948 42.6859C111.071 42.6859 111.162 42.6559 111.246 42.5884C111.322 42.5209 111.383 42.4385 111.421 42.3335C111.46 42.2285 111.475 42.1086 111.475 41.9811C111.475 41.8536 111.46 41.7337 111.421 41.6287C111.383 41.5237 111.322 41.4337 111.246 41.3663C111.17 41.2988 111.071 41.2688 110.948 41.2688C110.826 41.2688 110.727 41.2988 110.651 41.3663C110.575 41.4337 110.514 41.5162 110.475 41.6287C110.437 41.7337 110.422 41.8536 110.422 41.9811C110.422 42.1086 110.437 42.2285 110.475 42.3335C110.514 42.4385 110.575 42.5284 110.651 42.5884C110.727 42.6559 110.826 42.6859 110.948 42.6859Z" fill="#777777"/>
<path d="M112.322 42.9783V40.9689H112.688V41.2988H112.711C112.749 41.1863 112.818 41.1038 112.909 41.0364C113.001 40.9764 113.115 40.9464 113.237 40.9464C113.359 40.9464 113.474 40.9764 113.565 41.0439C113.657 41.1038 113.718 41.1938 113.764 41.3063H113.787C113.833 41.2013 113.909 41.1113 114.008 41.0514C114.107 40.9839 114.229 40.9539 114.374 40.9539C114.55 40.9539 114.695 41.0139 114.809 41.1263C114.924 41.2388 114.977 41.4113 114.977 41.6437V42.9933H114.596V41.6812C114.596 41.5462 114.557 41.4487 114.489 41.3888C114.42 41.3288 114.328 41.2988 114.229 41.2988C114.107 41.2988 114.008 41.3363 113.939 41.4188C113.871 41.4937 113.84 41.5987 113.84 41.7187V43.0008H113.459V41.6662C113.459 41.5537 113.428 41.4712 113.359 41.4038C113.291 41.3363 113.207 41.3063 113.1 41.3063C113.031 41.3063 112.963 41.3288 112.902 41.3663C112.841 41.4038 112.795 41.4562 112.757 41.5312C112.719 41.5987 112.703 41.6812 112.703 41.7712V43.0158H112.322V42.9783Z" fill="#777777"/>
<path d="M57.1338 25.688V36.7475H55.5162V27.3601H55.4552L52.8915 29.0846V27.4875L55.562 25.6805H57.1338V25.688Z" fill="#777777"/>
<path d="M63.0166 36.8975C62.3604 36.8975 61.7729 36.77 61.2541 36.5076C60.7352 36.2451 60.3156 35.8852 60.0104 35.4279C59.6975 34.9705 59.5373 34.4456 59.5144 33.8608H61.0786C61.1167 34.3332 61.3227 34.7231 61.689 35.0305C62.0552 35.3379 62.4977 35.4878 63.0166 35.4878C63.4286 35.4878 63.7949 35.3904 64.1077 35.1954C64.4281 35.0005 64.6799 34.7306 64.8631 34.3856C65.0462 34.0407 65.1377 33.6433 65.1377 33.201C65.1377 32.7586 65.0462 32.3462 64.8554 31.9938C64.6647 31.6414 64.4053 31.364 64.0772 31.1615C63.7491 30.9591 63.3676 30.8541 62.9479 30.8541C62.6275 30.8541 62.2994 30.9141 61.9713 31.0266C61.6432 31.139 61.3761 31.2965 61.1778 31.4764L59.6975 31.2515L60.3003 25.6805H66.1831V27.1126H61.6432L61.2998 30.2093H61.3609C61.5669 29.9993 61.8492 29.8269 62.1926 29.6844C62.5359 29.542 62.9098 29.4745 63.3065 29.4745C63.9551 29.4745 64.5426 29.6319 65.0462 29.9544C65.5574 30.2768 65.9618 30.7116 66.2517 31.2665C66.5493 31.8213 66.6943 32.4512 66.6866 33.171C66.6866 33.8908 66.534 34.5281 66.2212 35.0905C65.9084 35.6528 65.4735 36.0952 64.9165 36.4176C64.3595 36.74 63.7262 36.8975 63.009 36.8975H63.0166Z" fill="#777777"/>
<path d="M69.3876 36.845C69.1053 36.845 68.8535 36.74 68.6475 36.5301C68.4415 36.3201 68.3423 36.0652 68.3423 35.7653C68.3423 35.4653 68.4415 35.2179 68.6475 35.008C68.8535 34.798 69.0977 34.6931 69.3876 34.6931C69.6775 34.6931 69.9217 34.798 70.1277 35.008C70.3337 35.2179 70.4329 35.4728 70.4329 35.7653C70.4329 35.9602 70.3871 36.1477 70.2879 36.3051C70.1888 36.4701 70.0667 36.5975 69.9064 36.695C69.7462 36.7925 69.5784 36.8375 69.3876 36.8375V36.845Z" fill="#777777"/>
<path d="M75.7968 36.9275C74.9728 36.9275 74.2632 36.7025 73.6833 36.2526C73.0958 35.8028 72.6533 35.1579 72.3404 34.3032C72.0276 33.4484 71.875 32.4212 71.875 31.2215C71.875 30.0218 72.0276 29.0021 72.3404 28.1473C72.6533 27.3001 73.1034 26.6478 73.691 26.2054C74.2785 25.7555 74.9804 25.5381 75.7968 25.5381C76.6133 25.5381 77.3152 25.763 77.9027 26.2129C78.4902 26.6627 78.9328 27.3076 79.2456 28.1548C79.5585 29.0021 79.7111 30.0293 79.7111 31.2215C79.7111 32.4137 79.5585 33.4559 79.2456 34.3107C78.9328 35.1654 78.4902 35.8103 77.9027 36.2601C77.3152 36.71 76.6133 36.935 75.7892 36.935L75.7968 36.9275ZM75.7968 35.4879C76.5217 35.4879 77.0863 35.1205 77.4983 34.3931C77.9104 33.6658 78.1087 32.6086 78.1087 31.2215C78.1087 30.3068 78.0172 29.527 77.8264 28.8896C77.6433 28.2523 77.3763 27.7724 77.0253 27.4425C76.6819 27.1126 76.2699 26.9477 75.7892 26.9477C75.0644 26.9477 74.4997 27.3151 74.0877 28.0499C73.6757 28.7847 73.4697 29.8419 73.4621 31.2215C73.4621 32.1438 73.5536 32.9235 73.7444 33.5534C73.9275 34.1907 74.1945 34.6706 74.5379 34.993C74.8812 35.3154 75.3009 35.4804 75.7816 35.4804L75.7968 35.4879Z" fill="#777777"/>
<path d="M85.3267 36.9275C84.5027 36.9275 83.7931 36.7025 83.2132 36.2526C82.6257 35.8028 82.1832 35.1579 81.8703 34.3032C81.5575 33.4484 81.4049 32.4212 81.4049 31.2215C81.4049 30.0218 81.5575 29.0021 81.8703 28.1473C82.1832 27.3001 82.6333 26.6478 83.2209 26.2054C83.8084 25.7555 84.5103 25.5381 85.3267 25.5381C86.1432 25.5381 86.8451 25.763 87.4326 26.2129C88.0201 26.6627 88.4627 27.3076 88.7755 28.1548C89.0884 29.0021 89.241 30.0293 89.241 31.2215C89.241 32.4137 89.0884 33.4559 88.7755 34.3107C88.4627 35.1654 88.0201 35.8103 87.4326 36.2601C86.8451 36.71 86.1432 36.935 85.3191 36.935L85.3267 36.9275ZM85.3267 35.4879C86.0516 35.4879 86.6162 35.1205 87.0282 34.3931C87.4403 33.6658 87.6387 32.6086 87.6387 31.2215C87.6387 30.3068 87.5471 29.527 87.3563 28.8896C87.1732 28.2523 86.9062 27.7724 86.5552 27.4425C86.2042 27.1126 85.7998 26.9477 85.3191 26.9477C84.5943 26.9477 84.0296 27.3151 83.6176 28.0499C83.2056 28.7847 82.9996 29.8419 82.9996 31.2215C82.9996 32.1438 83.0911 32.9235 83.2819 33.5534C83.465 34.1907 83.7321 34.6706 84.0754 34.993C84.4188 35.3154 84.8384 35.4804 85.3191 35.4804L85.3267 35.4879Z" fill="#777777"/>
<path d="M90.9577 36.74L95.6273 27.1951V27.1126H90.2252V25.6805H97.2983V27.1576L92.6439 36.7325H90.9577V36.74Z" fill="#777777"/>
<path d="M98.1529 36.845C97.8706 36.845 97.6188 36.74 97.4127 36.5301C97.2067 36.3201 97.1075 36.0652 97.1075 35.7653C97.1075 35.4653 97.2067 35.2179 97.4127 35.008C97.6188 34.798 97.8629 34.6931 98.1529 34.6931C98.4428 34.6931 98.687 34.798 98.893 35.008C99.099 35.2179 99.1982 35.4728 99.1982 35.7653C99.1982 35.9602 99.1524 36.1477 99.0532 36.3051C98.954 36.4701 98.8319 36.5975 98.6717 36.695C98.5115 36.7925 98.3436 36.8375 98.1529 36.8375V36.845Z" fill="#777777"/>
<path d="M104.059 25.688V36.7475H102.441V27.3601H102.38L99.8163 29.0846V27.4875L102.487 25.6805H104.059V25.688Z" fill="#777777"/>
<path d="M109.941 36.8975C109.285 36.8975 108.698 36.77 108.179 36.5076C107.66 36.2451 107.24 35.8852 106.935 35.4279C106.622 34.9705 106.462 34.4456 106.439 33.8608H108.003C108.041 34.3332 108.247 34.7231 108.614 35.0305C108.98 35.3379 109.422 35.4878 109.941 35.4878C110.353 35.4878 110.72 35.3904 111.032 35.1954C111.353 35.0005 111.605 34.7306 111.788 34.3856C111.971 34.0407 112.062 33.6433 112.062 33.201C112.062 32.7586 111.971 32.3462 111.78 31.9938C111.589 31.6414 111.33 31.364 111.002 31.1615C110.674 30.9591 110.292 30.8541 109.873 30.8541C109.552 30.8541 109.224 30.9141 108.896 31.0266C108.568 31.139 108.301 31.2965 108.102 31.4764L106.622 31.2515L107.225 25.6805H113.108V27.1126H108.568L108.225 30.2093H108.286C108.492 29.9993 108.774 29.8269 109.117 29.6844C109.461 29.542 109.834 29.4745 110.231 29.4745C110.88 29.4745 111.467 29.6319 111.971 29.9544C112.482 30.2768 112.886 30.7116 113.176 31.2665C113.474 31.8213 113.619 32.4512 113.611 33.171C113.611 33.8908 113.459 34.5281 113.146 35.0905C112.833 35.6528 112.398 36.0952 111.841 36.4176C111.284 36.74 110.651 36.8975 109.934 36.8975H109.941Z" fill="#777777"/>
</g>
<defs>
<clipPath id="clip0_899_1131">
<rect width="115" height="46" fill="white"/>
</clipPath>
</defs>
</svg>
