<svg width="337" height="252" viewBox="0 0 337 252" fill="none" xmlns="http://www.w3.org/2000/svg">
<g clip-path="url(#clip0_896_10604)">
<path d="M223.298 102.101C229.302 99.0162 234.076 103.625 234.274 109.692L235.145 109.458L235.153 109.443C235.379 117.885 232.875 126.973 231.835 135.349C229.587 153.39 227.757 171.417 226.585 189.583C225.955 199.087 225.553 208.643 226.38 218.169C226.761 222.632 227.727 226.934 228.306 231.338C228.76 234.533 228.218 237.486 225.289 239.317C222.295 241.274 219.205 240.564 216.964 238.058C216.84 237.984 216.722 237.918 216.598 237.845C215.558 236.68 215.427 235.053 215.639 233.543C215.397 232.261 215.148 230.979 214.906 229.696C214.467 227.33 214.13 224.926 213.881 222.508C213.398 218.075 213.207 213.56 213.237 209.09C213.237 199.549 213.955 190.015 214.804 180.547C216.561 161.084 219.065 141.731 222.426 122.451C222.485 121.916 223.239 117.043 223.862 113.239C223.261 113.716 222.836 114.038 222.734 114.067C221.064 115.562 219.549 117.219 218.151 118.948C212.454 126.203 208.089 134.55 203.864 142.654C197.589 154.636 191.446 167.511 187.162 180.716C186.452 187.238 185.611 193.694 183.846 199.776C181.993 206.297 173.704 203.264 172.576 197.974C172.481 198.003 172.386 198.025 172.283 198.054C172.254 186.131 175.396 173.659 177.16 161.868C178.105 155.801 179.042 149.733 179.892 143.694C180.36 140.456 180.821 137.216 180.851 133.89C180.865 133.575 180.858 133.165 180.851 132.747C180.155 133.245 179.467 133.751 178.772 134.249C176.575 136.088 174.561 138.199 172.664 140.375C169.56 143.812 166.748 147.587 164.186 151.507C158.804 159.927 154.703 169.233 151.327 178.562C147.015 190.528 143.756 202.927 141.369 215.509C141.289 216.359 141.209 217.209 141.128 218.066C140.791 227.497 141.604 237.339 140.513 246.66C140.542 246.755 140.564 246.851 140.593 246.953C139.663 253.431 128.951 254.069 128.284 246.675C127.347 236.768 128.9 226.069 129.735 216.198C130.555 206.635 131.595 197.123 132.949 187.626C135.607 168.434 138.741 148.699 145.03 130.284C146.056 127.207 150.559 128.885 150.23 131.875C148.663 147.447 146.121 162.873 144.327 178.4C148.442 163.796 154.015 149.616 163.248 137.451C167.737 131.457 174.547 122.964 182.198 120.978C191.226 118.728 192.134 130.827 192.017 136.872C191.885 143.24 191.043 149.689 190.084 156.071C192.347 150.686 194.836 145.336 197.252 140.111C200.672 132.857 204.179 125.565 208.426 118.706C212.014 112.851 217.03 105.369 223.298 102.101ZM91.5568 168.089C97.7073 164.814 105.791 162.556 112.821 163.729L112.801 163.833C114.297 164.086 115.384 165.279 115.625 166.748C115.742 167.378 115.545 167.869 115.376 168.47C115.061 169.547 113.743 170.346 112.674 170.471C107.212 171.02 102.064 171.321 96.8439 172.75C96.8585 175.439 95.8335 177.923 95.1525 180.481C94.5155 182.803 93.9512 185.156 93.3801 187.516C92.2305 192.403 91.3159 197.328 90.635 202.304C89.2658 212.643 89.3234 222.984 89.2941 233.397C89.2938 235.214 86.8415 235.499 86.4533 233.675C84.2934 223.306 84.3232 212.504 85.1506 201.982C85.5606 196.801 86.1831 191.619 87.1057 186.526C87.6255 183.793 88.27 181.089 88.9729 178.422C89.2364 177.36 89.4925 176.296 89.7707 175.285C85.2824 177.388 81.1666 180.275 77.5422 183.741C76.4073 184.818 74.7452 183.566 75.6457 182.225C79.6802 176.223 85.1575 171.482 91.5568 168.089ZM99.385 197.716C97.76 191.934 105.646 184.944 110.119 190.659C111.906 192.982 112.411 196.038 112.389 199.013C114.644 198.397 116.761 197.269 118.503 195.804L118.583 195.892L118.591 195.899C119.843 194.845 121.357 196.961 120.04 197.98C118.232 199.408 115.296 200.977 112.198 201.93C112.191 202.098 112.176 202.267 112.169 202.436C111.774 206.231 110.55 211.251 107.16 213.552C103.529 215.97 99.0262 213.786 97.4006 210.042C95.7386 206.144 96.361 200.742 99.385 197.716ZM104.085 202.442C103.785 203.571 103.433 204.715 103.485 205.909C103.617 208.408 105.25 208.349 106.473 206.363C107.08 205.374 107.469 204.165 107.71 202.831C106.465 202.897 105.22 202.794 104.085 202.442ZM312.05 92.1056C313.734 91.4387 316.488 92.0402 317.469 93.7403L317.637 93.5929L317.645 93.6075C319.944 97.8577 318.669 100.797 317.154 105.15C315.638 109.502 314.13 113.855 312.621 118.208C309.714 126.576 307.341 134.996 305.555 143.68C303.702 152.488 302.502 161.421 301.843 170.42C301.44 175.403 301.25 180.437 301.067 185.464C300.854 190.396 301.331 195.973 299.954 200.81C299.522 202.275 297.735 202.553 297.025 201.088C293.093 192.719 293.788 180.804 294.008 171.717C294.057 169.513 294.147 167.309 294.272 165.107C292.262 169.847 289.529 174.448 286.855 178.144C283.245 183.171 276.838 188.967 270.123 186.747C265.459 185.216 263.607 180.327 263.094 175.381C260.868 178.994 258.385 182.475 255.764 185.779C252.593 189.751 247.973 194.852 242.262 194.441C236.017 193.965 233.161 187.274 233.051 181.91C232.795 169.533 242.116 155.786 252.242 149.191C257.177 145.981 263.482 144.78 268.622 148.048C269.691 145.886 270.914 143.892 272.334 142.266C276.193 137.788 284.167 140.808 283.156 146.992C282.226 152.327 279.071 157.134 277.358 162.264C276.215 165.686 273.06 173.908 274.693 177.616C277.57 183.99 285.697 168.913 286.84 166.632C289.051 162.191 290.625 157.303 293.422 153.111L293.495 152.986L293.488 152.994C293.983 152.241 294.707 152.031 295.388 152.172C295.726 149.217 296.116 146.268 296.549 143.328C297.933 133.927 299.727 124.517 301.858 115.218C302.831 110.807 304.025 106.431 305.343 102.13C306.69 97.924 307.577 93.9449 312.05 92.1056ZM108.01 199.724L108.018 199.717C108.018 199.714 108.017 199.711 108.017 199.709L108.01 199.724ZM107.439 194.756C106.553 191.693 103.998 192.221 102.812 194.756C102.329 195.826 102.402 196.683 102.812 197.401C103.214 197.68 103.595 198.068 103.88 198.485C104.832 199.16 106.092 199.534 107.212 199.614C107.487 199.643 107.762 199.675 108.017 199.658C108.026 197.912 107.822 196.176 107.439 194.756ZM329.616 87.3204C331.3 86.6538 334.053 87.2545 335.034 88.9542L335.203 88.8077L335.21 88.8224C337.509 93.0726 336.236 96.0116 334.72 100.364C333.212 104.717 331.696 109.07 330.188 113.423C327.281 121.791 324.908 130.211 323.121 138.895C321.269 147.703 320.068 156.636 319.409 165.635C319.007 170.618 318.816 175.652 318.633 180.679C318.421 185.61 318.903 191.187 317.52 196.024C317.088 197.489 315.301 197.768 314.591 196.303C310.659 187.934 311.355 176.018 311.574 166.932C311.787 157.435 312.732 147.945 314.115 138.543C315.499 129.141 317.293 119.732 319.424 110.433C320.398 106.021 321.591 101.646 322.909 97.3448C324.257 93.1388 325.143 89.1597 329.616 87.3204ZM262.003 159.187C260.897 158.557 259.213 160.359 258.085 161.187C255.435 163.26 253.084 165.664 251.005 168.302C249.467 170.274 241.253 183.515 245.594 184.614C247.842 185.244 253.815 178.644 255.098 177.25C257.734 174.356 259.872 171.175 261.863 167.833C262.142 167.342 262.428 166.851 262.706 166.36C262.699 165.95 262.692 165.532 262.677 165.122L262.845 164.976H262.853C262.926 163.708 263.452 159.934 262.003 159.187ZM95.3059 15.0304C101.31 11.9453 106.084 16.5546 106.281 22.6222L107.154 22.3868L107.166 23.1661C107.225 31.3818 104.843 40.1634 103.836 48.2774C101.588 66.3187 99.7577 84.3532 98.5861 102.512C97.9565 112.016 97.5464 121.572 98.3811 131.098C98.7618 135.56 99.7284 139.863 100.307 144.267C100.761 147.462 100.218 150.415 97.2971 152.247C94.3025 154.203 91.205 153.492 88.9719 150.986C88.8474 150.913 88.7301 150.847 88.6057 150.774C87.5662 149.608 87.4344 147.981 87.6467 146.472C87.4051 145.19 87.1558 143.907 86.9143 142.625C86.475 140.251 86.1388 137.855 85.8898 135.437C85.4066 131.003 85.216 126.489 85.2453 122.019C85.2453 112.478 85.9624 102.943 86.8117 93.4757C88.569 74.0128 91.0739 54.6596 94.4348 35.38C94.4933 34.845 95.247 29.9712 95.8693 26.1681C95.2698 26.6437 94.8456 26.9666 94.7424 26.9893C93.0731 28.4841 91.5568 30.14 90.1584 31.8692C84.4619 39.1238 80.0971 47.4707 75.8723 55.5753C69.5972 67.5565 63.4546 80.4328 59.1711 93.6378C58.4609 100.159 57.6183 106.615 55.8537 112.697C54.0011 119.219 45.713 116.185 44.5852 110.895C44.4901 110.924 44.3946 110.946 44.2922 110.976C44.2629 99.0533 47.4035 86.5807 49.1682 74.7901C50.1127 68.7226 51.0502 62.6545 51.8996 56.6163C52.3682 53.3775 52.8293 50.1384 52.8586 46.8116C52.8732 46.4966 52.8659 46.0857 52.8586 45.6681C52.1631 46.1663 51.475 46.6728 50.7795 47.171C48.583 49.0102 46.5694 51.1207 44.673 53.297C41.5685 56.7337 38.7563 60.5075 36.1936 64.4278C30.8119 72.8475 26.7116 82.1542 23.3361 91.4825C19.0234 103.449 15.7642 115.849 13.3772 128.431C13.2966 129.281 13.2165 130.131 13.1359 130.988C12.7992 140.419 13.6122 150.261 12.5139 159.582L12.5939 159.875C11.6638 166.353 0.951999 166.99 0.285355 159.597C-0.651878 149.682 0.900813 138.99 1.73555 129.119C2.55562 119.557 3.59487 110.045 4.94942 100.548C7.60736 81.356 10.7417 61.6213 17.0314 43.2061C18.0565 40.1285 22.5589 41.8063 22.2297 44.796C20.6627 60.3678 18.1222 75.7936 16.3283 91.3214C20.4434 76.7169 26.0161 62.5375 35.2492 50.3731C39.7303 44.379 46.547 35.8862 54.1984 33.9073C63.2265 31.6577 64.1349 43.7551 64.0178 49.8009C63.886 56.1688 63.0439 62.6185 62.092 69.0011C64.3545 63.6151 66.8447 58.2649 69.2609 53.0401C72.6803 45.7782 76.1875 38.4937 80.4416 31.6349C84.0294 25.7799 89.0456 18.2914 95.3059 15.0304ZM184.051 5.03427C185.735 4.36754 188.488 4.969 189.469 6.66904L189.638 6.52255L189.645 6.5372C191.944 10.7872 190.67 13.7256 189.154 18.0782C187.646 22.4309 186.131 26.7841 184.622 31.1368C181.715 39.498 179.342 47.9259 177.556 56.6095C175.703 65.4174 174.503 74.3503 173.844 83.3487C173.441 88.3317 173.251 93.3667 173.068 98.3936C172.855 103.325 173.338 108.902 171.954 113.738C171.522 115.203 169.736 115.482 169.026 114.017C165.094 105.648 165.789 93.7323 166.009 84.6456C166.058 82.4418 166.148 80.2382 166.273 78.0362C164.263 82.7764 161.53 87.3764 158.856 91.0724C155.246 96.0992 148.838 101.896 142.124 99.6759C137.46 98.1443 135.608 93.256 135.095 88.3097C132.869 91.9223 130.386 95.4033 127.765 98.7081C124.594 102.687 119.974 107.781 114.263 107.37C108.017 106.894 105.162 100.203 105.052 94.839C104.796 82.4621 114.117 68.7144 124.243 62.1192C129.178 58.9097 135.483 57.7085 140.623 60.9767C141.692 58.815 142.915 56.8212 144.335 55.1944C148.194 50.7173 156.168 53.7364 155.157 59.921C154.227 65.2555 151.072 70.0558 149.359 75.1925C148.216 78.6148 145.06 86.8444 146.693 90.545C149.57 96.9195 157.698 81.8408 158.841 79.5606C161.052 75.12 162.626 70.2317 165.423 66.0401L165.489 65.9151V65.9229C165.984 65.1692 166.708 64.9597 167.389 65.1007C167.727 62.146 168.117 59.1969 168.55 56.2569C169.934 46.8555 171.728 37.4464 173.859 28.1476C174.832 23.729 176.026 19.361 177.344 15.0597C178.684 10.8534 179.577 6.88096 184.051 5.03427ZM201.624 0.249115C203.308 -0.417637 206.061 0.183837 207.042 1.88388L207.211 1.7374V1.75204C209.51 6.00189 208.236 8.94059 206.721 13.2931C205.213 17.6458 203.696 21.9989 202.188 26.3517C199.281 34.7128 196.909 43.1407 195.122 51.8243C193.27 60.625 192.068 69.5651 191.409 78.5636C191.007 83.5465 190.817 88.5816 190.634 93.6085C190.422 98.5401 190.905 104.117 189.521 108.953C189.088 110.418 187.302 110.696 186.592 109.232C182.66 100.863 183.355 88.9471 183.582 79.8604C183.795 70.3636 184.739 60.8734 186.123 51.4718C187.507 42.0703 189.301 32.6613 191.432 23.3624C192.406 18.9438 193.599 14.5758 194.917 10.2745C196.257 6.06829 197.15 2.0958 201.624 0.249115ZM134.004 72.1153C132.899 71.4852 131.214 73.2871 130.094 74.1153C127.443 76.1891 125.092 78.5935 123.013 81.2315C121.474 83.212 113.26 96.4437 117.602 97.5431C119.849 98.1732 125.823 91.5723 127.106 90.1788C129.742 87.2843 131.881 84.1033 133.872 80.7618L134.714 79.2892C134.707 78.8789 134.699 78.4611 134.685 78.0509L134.853 77.9044C134.926 76.6368 135.453 72.8634 134.004 72.1153Z" fill="url(#paint0_linear_896_10604)"/>
</g>
<defs>
<linearGradient id="paint0_linear_896_10604" x1="27.4517" y1="-235.806" x2="147.114" y2="301.972" gradientUnits="userSpaceOnUse">
<stop stop-color="#894FF4"/>
<stop offset="0.456731" stop-color="#2E568E"/>
<stop offset="0.956731" stop-color="#A04C9D"/>
</linearGradient>
<clipPath id="clip0_896_10604">
<rect width="336.463" height="251.995" fill="white"/>
</clipPath>
</defs>
</svg>
