<svg width="126" height="93" viewBox="0 0 126 93" fill="none" xmlns="http://www.w3.org/2000/svg">
<g clip-path="url(#clip0_932_11057)">
<path d="M83.6224 37.6807C85.8704 36.5428 87.6585 38.2435 87.7327 40.4824L88.0589 40.3955L88.0609 40.3906C88.1458 43.5058 87.2091 46.8593 86.8196 49.9502C85.9779 56.6083 85.2916 63.2617 84.8528 69.9658C84.617 73.4733 84.4669 77.0001 84.7767 80.5156C84.9193 82.1625 85.2807 83.7507 85.4974 85.376C85.6673 86.5549 85.4639 87.6452 84.3675 88.3213C83.2461 89.0431 82.0893 88.7803 81.2503 87.8555C81.2037 87.8284 81.1592 87.8044 81.1126 87.7773C80.7234 87.3474 80.6747 86.7465 80.7542 86.1895C80.6638 85.7164 80.5703 85.2426 80.4798 84.7695C80.3154 83.8963 80.1892 83.0093 80.096 82.1172C79.9151 80.4811 79.8438 78.8146 79.8548 77.165C79.8548 73.644 80.1227 70.1248 80.4407 66.6309C81.0988 59.4482 82.0367 52.3055 83.2952 45.1904C83.3176 44.9902 83.6005 43.1933 83.8333 41.791C83.6092 41.9662 83.4495 42.0852 83.4105 42.0967C82.7856 42.6481 82.2181 43.2596 81.6946 43.8975C79.5615 46.5746 77.9271 49.6556 76.345 52.6465C73.9952 57.068 71.6942 61.8202 70.0901 66.6934C69.8242 69.1001 69.5087 71.4831 68.848 73.7275C68.1542 76.1344 65.0506 75.015 64.6282 73.0625C64.5927 73.0733 64.5561 73.081 64.5179 73.0918C64.5071 68.6919 65.6833 64.0885 66.3441 59.7373C66.6977 57.4983 67.0495 55.2585 67.3675 53.0303C67.5429 51.8352 67.7149 50.6396 67.7259 49.4121C67.7313 49.2959 67.7286 49.1442 67.7259 48.9902C67.4656 49.174 67.2079 49.3612 66.9476 49.5449C66.1251 50.2236 65.3705 51.0026 64.6605 51.8057C63.498 53.0739 62.4453 54.4674 61.4857 55.9141C59.4704 59.0213 57.9343 62.4559 56.6702 65.8984C55.0552 70.3146 53.8346 74.8908 52.9407 79.5342C52.9106 79.8477 52.881 80.1622 52.8509 80.4785C52.7248 83.9587 53.0288 87.5907 52.6204 91.0303C52.6313 91.0653 52.6398 91.101 52.6507 91.1387C52.3025 93.5294 48.2909 93.7649 48.0413 91.0361C47.6904 87.3798 48.2717 83.4308 48.5843 79.7881C48.8914 76.2592 49.2802 72.7487 49.7874 69.2441C50.7827 62.1615 51.9566 54.878 54.3118 48.082C54.696 46.9469 56.382 47.5659 56.2591 48.6689C55.6723 54.4155 54.7209 60.1085 54.0491 65.8389C55.5901 60.4492 57.6765 55.2157 61.1341 50.7266C62.8149 48.5144 65.3656 45.3804 68.2308 44.6475C71.6111 43.8177 71.9513 48.2814 71.9075 50.5127C71.8582 52.8627 71.5431 55.2432 71.1839 57.5986C72.0311 55.611 72.9637 53.6361 73.8685 51.708C75.1489 49.0308 76.4628 46.3397 78.053 43.8086C79.3966 41.6478 81.2754 38.8867 83.6224 37.6807ZM34.2864 62.0342C36.5897 60.8253 39.617 59.9922 42.2493 60.4248L42.2415 60.4629C42.802 60.5558 43.2097 60.9966 43.3001 61.5391C43.3438 61.7714 43.2694 61.9532 43.2064 62.1748C43.0883 62.5722 42.5949 62.8671 42.1946 62.9131C40.1491 63.1159 38.221 63.2275 36.2659 63.7549C36.2712 64.747 35.8881 65.6639 35.6331 66.6074C35.3946 67.4646 35.1829 68.3334 34.9691 69.2041C34.5386 71.0077 34.1957 72.8251 33.9407 74.6611C33.428 78.477 33.4507 82.2938 33.4398 86.1367C33.4391 86.8066 32.5209 86.9119 32.3753 86.2393C31.5664 82.4126 31.5772 78.4254 31.887 74.542C32.0406 72.6302 32.274 70.7182 32.6194 68.8389C32.8141 67.8302 33.0555 66.832 33.3187 65.8477C33.4173 65.4557 33.5134 65.0635 33.6175 64.6904C31.9367 65.4666 30.3956 66.5324 29.0384 67.8115C28.6135 68.2083 27.9917 67.7456 28.3284 67.251C29.8392 65.0363 31.8901 63.2863 34.2864 62.0342ZM37.2181 72.9688C36.6094 70.835 39.5622 68.255 41.2376 70.3643C41.9066 71.2215 42.0964 72.3493 42.0882 73.4473C42.9325 73.2201 43.7248 72.8034 44.3773 72.2627L44.4075 72.2949L44.4105 72.2979C44.8793 71.9085 45.4466 72.6894 44.9534 73.0654C44.2762 73.5927 43.1766 74.1719 42.0169 74.5234C42.0142 74.5854 42.0089 74.648 42.0062 74.71C41.8581 76.1107 41.3995 77.9633 40.1302 78.8125C38.7703 79.7046 37.0838 78.8992 36.4749 77.5176C35.8525 76.079 36.0859 74.0857 37.2181 72.9688ZM38.9788 74.7129C38.8664 75.1293 38.734 75.5515 38.7532 75.9922C38.8028 76.9137 39.4146 76.8923 39.8724 76.1602C40.0999 75.7952 40.2457 75.3484 40.3362 74.8564C39.8703 74.8808 39.4037 74.8426 38.9788 74.7129ZM116.859 33.9912C117.489 33.7457 118.52 33.9678 118.887 34.5947L118.951 34.54L118.953 34.5459C119.814 36.1143 119.337 37.1995 118.77 38.8057C118.202 40.4119 117.637 42.0188 117.073 43.625C115.984 46.7133 115.095 49.8208 114.426 53.0254C113.732 56.2759 113.282 59.5727 113.035 62.8936C112.885 64.7324 112.814 66.5912 112.745 68.4463C112.666 70.2661 112.844 72.3247 112.328 74.1094C112.167 74.6499 111.498 74.7525 111.232 74.2119C109.759 71.1235 110.02 66.7255 110.102 63.3721C110.12 62.5571 110.155 61.742 110.201 60.9277C109.449 62.6787 108.425 64.3789 107.423 65.7441C106.071 67.5993 103.672 69.7381 101.158 68.9189C99.4108 68.3537 98.7167 66.5501 98.5247 64.7246C97.6912 66.0577 96.7621 67.3429 95.7806 68.5625C94.5933 70.0282 92.8625 71.91 90.7239 71.7588C88.3851 71.583 87.316 69.1143 87.2747 67.1348C87.179 62.5671 90.6691 57.4925 94.4612 55.0586C96.3092 53.8744 98.6704 53.4309 100.595 54.6367C100.995 53.8392 101.454 53.1031 101.986 52.5029C103.431 50.8517 106.416 51.9661 106.038 54.248C105.69 56.2166 104.508 57.9909 103.867 59.8838C103.439 61.1467 102.257 64.1813 102.868 65.5498C103.946 67.9019 106.99 62.3362 107.417 61.4951C108.245 59.8565 108.835 58.0525 109.882 56.5059L109.908 56.4629C110.093 56.1842 110.365 56.1083 110.62 56.1611C110.747 55.0702 110.891 53.9809 111.053 52.8955C111.571 49.4259 112.243 45.9532 113.041 42.5215C113.406 40.8936 113.853 39.2787 114.347 37.6914C114.851 36.1392 115.183 34.67 116.859 33.9912ZM40.2347 71.876C39.9029 70.7455 38.9455 70.9402 38.5013 71.876C38.3205 72.2706 38.3478 72.5876 38.5013 72.8525C38.652 72.9553 38.7948 73.0988 38.9017 73.2529C39.2581 73.5016 39.7303 73.6392 40.1497 73.6689C40.2521 73.6793 40.3544 73.6907 40.4495 73.6846C40.4531 73.0405 40.3783 72.3999 40.2347 71.876ZM123.437 32.2256C124.068 31.9799 125.099 32.202 125.466 32.8291L125.529 32.7744L125.532 32.7803C126.392 34.3484 125.915 35.4332 125.348 37.0391C124.783 38.6452 124.215 40.2522 123.651 41.8584C122.562 44.9467 121.673 48.0552 121.004 51.2598C120.311 54.5102 119.861 57.8072 119.615 61.1279C119.464 62.9667 119.392 64.8247 119.324 66.6797C119.244 68.4995 119.425 70.558 118.907 72.3428C118.745 72.8835 118.076 72.9868 117.81 72.4463C116.338 69.3578 116.598 64.9599 116.68 61.6064C116.76 58.1018 117.113 54.5994 117.631 51.1299C118.149 47.6602 118.822 44.1867 119.619 40.7549C119.984 39.1271 120.432 37.512 120.925 35.9248C121.429 34.3728 121.762 32.9043 123.437 32.2256ZM98.1165 58.748C97.7027 58.5156 97.072 59.1805 96.6497 59.4863C95.6572 60.2516 94.776 61.1389 93.9974 62.1123C93.4211 62.8406 90.3462 67.7254 91.971 68.1318C92.813 68.364 95.0508 65.9279 95.5306 65.4141C96.5174 64.3461 97.3181 63.1723 98.0638 61.9395C98.1679 61.7584 98.2751 61.5765 98.3792 61.3955C98.3765 61.2442 98.3739 61.0898 98.3685 60.9385L98.4319 60.8848H98.4349C98.4624 60.4166 98.6589 59.0242 98.1165 58.748ZM35.6907 5.54688C37.9391 4.40836 39.727 6.10946 39.8011 8.34863L40.1273 8.2627L40.1321 8.84375C40.0977 11.7905 39.2501 14.9195 38.8851 17.8174C38.0433 24.4755 37.358 31.1317 36.9193 37.833C36.6835 41.3404 36.5295 44.8673 36.8421 48.3828C36.9847 50.0295 37.3472 51.6171 37.5638 53.2422C37.7337 54.4211 37.5307 55.5115 36.4368 56.1875C35.3155 56.9095 34.155 56.6473 33.3187 55.7227C33.2722 55.6957 33.2284 55.6705 33.1819 55.6436C32.7928 55.2137 32.7432 54.6136 32.8226 54.0566C32.7321 53.5835 32.6386 53.1098 32.5482 52.6367C32.3837 51.7606 32.2576 50.8757 32.1644 49.9834C31.9834 48.3474 31.9122 46.6808 31.9232 45.0312C31.9232 41.5104 32.192 37.9919 32.5101 34.498C33.1681 27.3153 34.106 20.1728 35.3646 13.0576C35.3865 12.8602 35.6686 11.0617 35.9017 9.6582C35.6774 9.83353 35.5185 9.95249 35.4798 9.96094C34.8547 10.5126 34.2867 11.1235 33.763 11.7617C31.6297 14.4391 29.9955 17.5197 28.4134 20.5107C26.0635 24.9324 23.7626 29.6843 22.1585 34.5576C21.8925 36.9644 21.5771 39.3473 20.9163 41.5918C20.2224 43.9979 17.1194 42.8788 16.6966 40.9268C16.6611 40.9375 16.6254 40.9453 16.5872 40.9561C16.5763 36.5561 17.7526 31.9529 18.4134 27.6016C18.7671 25.3624 19.1178 23.1228 19.4359 20.8945C19.6113 19.6994 19.7842 18.5039 19.7952 17.2764C19.8007 17.1602 19.798 17.0084 19.7952 16.8545C19.5348 17.0384 19.2764 17.2243 19.0159 17.4082C18.1934 18.087 17.44 18.8667 16.7298 19.6699C15.5672 20.9382 14.5137 22.3306 13.554 23.7773C11.5387 26.8847 10.0036 30.32 8.73956 33.7627C7.12457 38.1789 5.90395 42.7551 5.01007 47.3984C4.97993 47.7119 4.94939 48.0256 4.91925 48.3418C4.79315 51.8223 5.0981 55.4546 4.68683 58.8945L4.71613 59.0029C4.36745 61.393 0.356835 61.6283 0.10675 58.9004C-0.24422 55.2414 0.337118 51.2951 0.649719 47.6523C0.95682 44.1232 1.34656 40.6123 1.85382 37.1074C2.84916 30.0247 4.0229 22.7414 6.37823 15.9453C6.76223 14.8098 8.44862 15.429 8.3255 16.5322C7.7387 22.279 6.78635 27.9725 6.11456 33.7031C7.65556 28.3133 9.74292 23.0801 13.2005 18.5908C14.8786 16.3786 17.4317 13.2439 20.2972 12.5137C23.6778 11.6838 24.0178 16.1488 23.9739 18.3799C23.9245 20.7297 23.6096 23.1096 23.2532 25.4648C24.1004 23.4774 25.0321 21.5031 25.9368 19.5752C27.2173 16.8952 28.5312 14.2061 30.1243 11.6748C31.4679 9.51401 33.3464 6.75029 35.6907 5.54688ZM68.9241 1.8584C69.5547 1.61236 70.5858 1.83378 70.9534 2.46094L71.0169 2.40723L71.0198 2.41309C71.8802 3.98117 71.4028 5.06577 70.8353 6.67188C70.2704 8.27821 69.7028 9.88487 69.138 11.4912C68.0495 14.5768 67.1615 17.6871 66.4925 20.8916C65.7988 24.1422 65.3486 27.4398 65.1019 30.7607C64.9511 32.5995 64.8804 34.4575 64.8118 36.3125C64.7323 38.1324 64.913 40.1908 64.3948 41.9756C64.233 42.5161 63.5642 42.6186 63.2982 42.0781C61.8258 38.9898 62.086 34.5926 62.1683 31.2393C62.1868 30.424 62.2211 29.6085 62.2679 28.7939C61.515 30.5452 60.4921 32.2459 59.4896 33.6113C58.1378 35.4664 55.7381 37.605 53.2239 36.7861C51.4775 36.221 50.7832 34.417 50.5911 32.5918C49.7576 33.9249 48.8275 35.2092 47.846 36.4287C46.6588 37.8971 44.9288 39.7771 42.7903 39.626C40.4515 39.4502 39.3814 36.9806 39.3401 35.001C39.2442 30.4332 42.7354 25.3598 46.5276 22.9258C48.3758 21.7413 50.7366 21.2978 52.6614 22.5039C53.0618 21.7061 53.5201 20.9705 54.0521 20.3701C55.4971 18.718 58.483 19.8319 58.1048 22.1143C57.7565 24.0828 56.5746 25.8545 55.9329 27.75C55.5051 29.0131 54.3235 32.0503 54.9349 33.416C56.0126 35.7678 59.0556 30.204 59.4837 29.3623C60.3117 27.7236 60.9013 25.9199 61.9485 24.373L61.973 24.3262V24.3291C62.1586 24.0501 62.4311 23.9744 62.6868 24.0273C62.8134 22.9366 62.9573 21.8471 63.1194 20.7617C63.6377 17.2922 64.3099 13.8194 65.1077 10.3877C65.4724 8.75711 65.9189 7.14494 66.4124 5.55762C66.9142 4.00543 67.2491 2.53996 68.9241 1.8584ZM75.5052 0.0917969C76.1359 -0.154283 77.1671 0.0678967 77.5345 0.695312L77.598 0.641602V0.646484C78.4587 2.21484 77.9819 3.29995 77.4144 4.90625C76.8495 6.51259 76.281 8.11924 75.7161 9.72559C74.6276 12.8111 73.7396 15.9214 73.0706 19.126C72.3769 22.3738 71.9268 25.6733 71.68 28.9941C71.5292 30.8331 71.4585 32.6917 71.39 34.5469C71.3105 36.3668 71.4912 38.4252 70.973 40.21C70.811 40.7503 70.1423 40.8527 69.8763 40.3125C68.4038 37.2241 68.6643 32.8261 68.7493 29.4727C68.8289 25.968 69.1823 22.4656 69.7005 18.9961C70.2187 15.5264 70.8909 12.0539 71.6888 8.62207C72.0534 6.99146 72.5 5.37934 72.9935 3.79199C73.4953 2.23968 73.8299 0.773329 75.5052 0.0917969ZM50.1829 26.6143C49.7689 26.3817 49.1376 27.0469 48.7181 27.3525C47.7255 28.1178 46.8454 29.005 46.0667 29.9785C45.4906 30.7091 42.4145 35.5933 44.0403 35.999C44.8823 36.2311 47.1199 33.7952 47.5999 33.2812C48.587 32.2131 49.3873 31.0388 50.1331 29.8057L50.4485 29.2627C50.4458 29.1114 50.4433 28.956 50.4378 28.8047L50.5003 28.751C50.5277 28.2831 50.7253 26.8906 50.1829 26.6143Z" fill="url(#paint0_linear_932_11057)"/>
</g>
<defs>
<linearGradient id="paint0_linear_932_11057" x1="10.2798" y1="-87.0261" x2="53.861" y2="111.714" gradientUnits="userSpaceOnUse">
<stop stop-color="#894FF4"/>
<stop offset="0.456731" stop-color="#2E568E"/>
<stop offset="0.956731" stop-color="#A04C9D"/>
</linearGradient>
<clipPath id="clip0_932_11057">
<rect width="126" height="93" fill="white"/>
</clipPath>
</defs>
</svg>
